<?xml version="1.0" encoding="utf-8"?>
<!-- Generator: Adobe Illustrator 26.5.1, SVG Export Plug-In . SVG Version: 6.00 Build 0)  -->
<svg version="1.1" id="Layer_1" xmlns="http://www.w3.org/2000/svg" xmlns:xlink="http://www.w3.org/1999/xlink" x="0px" y="0px"
	 viewBox="0 0 200 200" style="enable-background:new 0 0 200 200;" xml:space="preserve">
<style type="text/css">
	.st0{fill:#013188;}
</style>
<g id="Car" transform="translate(-28.5 -20.5)">
	<path id="Path_460" class="st0" d="M157.9,169.1c-0.6,3.5-0.8,9,3.9,9c3,0,6.1,0,9.1,0c3.8,0,9.1-5.1,6.5-9
		C174.4,164.6,168.4,169.1,157.9,169.1z"/>
	<path id="Path_461" class="st0" d="M96.9,169.1c0,0,1.5,9-3,9h-6.6c-2,0.3-4.1,0.2-6-0.4c-0.7-0.4-1.3-0.8-1.8-1.4
		c-1.9-1.8-3.8-4.6-2.1-7.2C80.5,164.6,86.4,169.1,96.9,169.1z"/>
	<path id="Path_462" class="st0" d="M176.2,117.6c0,0-3.3-23.5-15.3-32.5s-59.9-6-67.4,0s-12,12-15,31.5H68v11.6l7.5,3.3v26
		c6,5.8,14.1,8.8,22.5,8.5h66c0,0,14.9-1.5,14.9-12v-22.4l7.5-4.5v-9.5L176.2,117.6L176.2,117.6L176.2,117.6z M94.9,149.6
		c-6,0-15-13.5-3-13.5c13.6,0,16.5,9,16.5,9C106.9,149.6,100.9,149.6,94.9,149.6z M127.4,116.6H88.5c0,0,3.3-18.4,12.5-22.5
		c8.7-1.8,17.6-2.6,26.5-2.2h0.5c8.9-0.3,17.8,0.4,26.5,2.2c9.2,4,12.5,22.5,12.5,22.5H127.4L127.4,116.6z M159.4,149.6
		c-6,0-12,0-13.5-4.5c0,0,2.9-9,16.5-9C174.4,136.1,165.4,149.6,159.4,149.6z"/>
</g>
</svg>
