<?xml version="1.0" encoding="utf-8"?>
<!-- Generator: Adobe Illustrator 26.5.1, SVG Export Plug-In . SVG Version: 6.00 Build 0)  -->
<svg version="1.1" id="Layer_1" xmlns="http://www.w3.org/2000/svg" xmlns:xlink="http://www.w3.org/1999/xlink" x="0px" y="0px"
	 viewBox="0 0 200 200" style="enable-background:new 0 0 200 200;" xml:space="preserve">
<style type="text/css">
	.st0{fill:#013188;}
</style>
<g>
	<path class="st0" d="M152,61.3c-0.1,0-0.2,0-0.3,0H50.6c-4.8-0.1-8.7,3.7-8.8,8.5c0,0.1,0,0.2,0,0.3v59.4c-0.1,4.8,3.8,8.7,8.5,8.8
		c0.1,0,0.2,0,0.3,0h101.1c4.8,0.1,8.7-3.8,8.8-8.5c0-0.1,0-0.2,0-0.3V70.1C160.6,65.3,156.7,61.4,152,61.3z M61.6,124V75.6
		c-0.1-1.4,1-2.7,2.4-2.7c0.1,0,0.2,0,0.3,0c1.4-0.1,2.7,1,2.8,2.4c0,0.1,0,0.2,0,0.3V124c0.1,1.7-1.1,3.1-2.8,3.3
		C63.2,126.7,61.6,125.6,61.6,124z M76.4,124L76.4,124l0-48.4c-0.1-1.4,1-2.7,2.4-2.8c0.1,0,0.2,0,0.3,0c1.7-0.1,3.1,1.1,3.3,2.8
		V124c0.1,1.8-1.3,3.2-3,3.3c-0.1,0-0.2,0-0.3,0C77.6,127,76.5,125.6,76.4,124z M90.7,124L90.7,124l0-48.4c0-1.7,1.1-2.8,3.3-2.8
		c1.4-0.1,2.7,1,2.8,2.4c0,0.1,0,0.2,0,0.3V124c0.1,1.7-1.1,3.1-2.8,3.3C92.3,126.7,90.7,125.6,90.7,124z M105.5,124L105.5,124
		l0.1-48.4c-0.1-1.4,1-2.7,2.4-2.8c0.1,0,0.2,0,0.3,0c1.7-0.1,3.1,1.1,3.3,2.8V124c0.1,1.8-1.3,3.2-3,3.3c-0.1,0-0.2,0-0.3,0
		C107.2,126.7,105.5,125.6,105.5,124z M120.4,124L120.4,124l0.1-48.4c0-1.7,1.1-2.8,3.3-2.8c1.7-0.1,3.1,1.1,3.3,2.8V124
		c0.1,1.8-1.3,3.2-3,3.3c-0.1,0-0.2,0-0.3,0C121.5,126.7,120.4,125.6,120.4,124z M140.8,124c0.1,1.7-1.1,3.1-2.8,3.3
		c-1.6,0-2.8-1.1-2.8-3.3V75.6c0-1.5,1.2-2.8,2.8-2.8s2.8,1.2,2.8,2.8V124z"/>
</g>
</svg>
