<?xml version="1.0" encoding="utf-8"?>
<!-- Generator: Adobe Illustrator 26.5.1, SVG Export Plug-In . SVG Version: 6.00 Build 0)  -->
<svg version="1.1" id="Layer_1" xmlns="http://www.w3.org/2000/svg" xmlns:xlink="http://www.w3.org/1999/xlink" x="0px" y="0px"
	 viewBox="0 0 200 200" style="enable-background:new 0 0 200 200;" xml:space="preserve">
<style type="text/css">
	.st0{fill:#013188;}
</style>
<g id="Port" transform="translate(-24.5 -24.5)">
	<path id="Path_477" class="st0" d="M138.7,61.8L74.5,87.4h-7.1v5.1h25.4v7.6h-7.6c-1.3-0.1-2.4,0.9-2.5,2.2c0,0.1,0,0.2,0,0.3v12.7
		c-0.1,1.3,0.9,2.4,2.2,2.5c0.1,0,0.2,0,0.3,0h20.3c1.3,0.1,2.4-0.9,2.5-2.2c0-0.1,0-0.2,0-0.3v-12.7c0.1-1.3-0.9-2.4-2.2-2.5
		c-0.1,0-0.2,0-0.3,0h-7.6v-7.6h38.1v81.2h5.1v-22.8h25.4v22.8h5.1V92.5h12.7v-5.1h-6.8L138.7,61.8z M135.8,68.3v19.1H88.1
		L135.8,68.3z M140.9,69.3L168,87.4h-27.1V69.3z M142.6,92.5h23.7V138L142.6,92.5z M140.9,100.3l23.7,45.5h-23.7L140.9,100.3z
		 M77.5,125.5c-1.4,0-2.5,1.1-2.5,2.5v14.9l-8.6,3.1c-0.9,0.4-1.5,1.3-1.5,2.3c0.5,4.8,2,9.4,4.6,13.4c0.6-0.4,1.2-1,1.8-1.5
		c1.8-2.1,4.9-2.4,7-0.6c0.2,0.2,0.4,0.4,0.6,0.6c2.4,3.5,7.3,4.4,10.8,1.9c0.8-0.5,1.4-1.2,1.9-1.9c1.8-2.1,4.9-2.4,7-0.6
		c0.2,0.2,0.4,0.4,0.6,0.6c2.4,3.5,7.3,4.4,10.8,1.9c0.8-0.5,1.4-1.2,1.9-1.9c1.8-2.1,4.9-2.4,7-0.6c0.2,0.2,0.4,0.4,0.6,0.6
		c0.5,0.6,1.1,1.1,1.8,1.5c2.5-4.1,4.1-8.7,4.6-13.4c0-1.1-0.7-2-1.8-2.3l-9.1-3.3h0.7v-14.7c0-1.4-1.1-2.5-2.5-2.5L77.5,125.5z
		 M80,130.6h30.4v10.6L96,135.9c-0.6-0.2-1.2-0.2-1.8,0L80,141.1V130.6z M82.6,148.3c1.3,0,2.5,1.8,2.5,3.8s-1.3,3.8-2.5,3.8
		c-1.3,0-2.5-1.8-2.5-3.8S81.3,148.3,82.6,148.3L82.6,148.3z M107.9,148.3c1.3,0,2.5,1.8,2.5,3.8s-1.3,3.8-2.5,3.8
		c-1.3,0-2.5-1.8-2.5-3.8S106.7,148.3,107.9,148.3L107.9,148.3z M75,163.6c-1,0-1.8,0.5-2.3,1.4c-0.4,0.7-0.9,1.2-1.5,1.7
		c-1.8,1.4-4.1,2.1-6.3,2v5.1c3.4,0.1,6.8-1,9.5-3.1c0.4-0.3,0.3-0.4,0.6-0.7c0.3,0.3,0.2,0.4,0.6,0.7c5.7,4.1,13.3,4.1,19,0
		c0.4-0.3,0.3-0.4,0.6-0.7c0.3,0.3,0.2,0.4,0.6,0.7c5.7,4.1,13.3,4.1,19,0c0.4-0.3,0.3-0.4,0.6-0.7c0.3,0.3,0.2,0.4,0.6,0.7
		c2.7,2.1,6.1,3.2,9.5,3.1v-5c-2.3,0.1-4.5-0.6-6.3-2c-0.6-0.4-1.2-1-1.5-1.7c-0.6-1.2-2.1-1.8-3.4-1.1h0c-0.5,0.2-0.9,0.6-1.1,1.1
		c-0.4,0.7-0.9,1.2-1.5,1.7c-3.8,2.6-8.9,2.6-12.7,0c-0.6-0.4-1.2-1-1.5-1.7c-0.6-1.2-2.1-1.8-3.4-1.1h0c-0.5,0.2-0.9,0.6-1.1,1.1
		c-0.4,0.7-0.9,1.2-1.5,1.7c-3.8,2.6-8.9,2.6-12.7,0c-0.6-0.4-1.2-1-1.5-1.7C76.9,164.1,76,163.6,75,163.6L75,163.6z"/>
</g>
</svg>
