<?xml version="1.0" encoding="utf-8"?>
<!-- Generator: Adobe Illustrator 26.5.1, SVG Export Plug-In . SVG Version: 6.00 Build 0)  -->
<svg version="1.1" id="Layer_1" xmlns="http://www.w3.org/2000/svg" xmlns:xlink="http://www.w3.org/1999/xlink" x="0px" y="0px"
	 viewBox="0 0 200 200" style="enable-background:new 0 0 200 200;" xml:space="preserve">
<style type="text/css">
	.st0{fill:none;stroke:#000000;stroke-width:3;stroke-miterlimit:10;}
	.st1{fill:#013188;}
</style>
<g id="shipping" transform="translate(-24.5 -24.5)">
	<path id="Path_469" class="st0" d="M141.1,36.2L141.1,36.2"/>
	<g id="Group_235" transform="translate(24.5 24.5)">
		<g id="Group_233" transform="translate(7.084 12.864)">
			<g id="Group_231" transform="translate(15.118)">
				<path id="Path_470" class="st1" d="M93.6,81.2H72.3V50c0-4,3.3-7.3,7.3-7.3h22.2c4,0,7.3,3.3,7.3,7.3v14h-8.3c-2.8,0-5,2.3-5,5
					v9.9C95.8,80.2,94.8,81.2,93.6,81.2L93.6,81.2z"/>
			</g>
			<g id="Group_232" transform="translate(0 5.705)">
				<path id="Path_471" class="st1" d="M104.5,114.9l2,3.2H99l2-3.2c0.6-1,1.9-1.3,2.8-0.7C104.1,114.4,104.3,114.6,104.5,114.9
					L104.5,114.9z"/>
				<path id="Path_472" class="st1" d="M74.7,118h-7.5l2-3.2c0.6-1,1.9-1.3,2.8-0.7c0.3,0.2,0.5,0.4,0.7,0.7L74.7,118z"/>
				<path id="Path_473" class="st1" d="M154.8,115.6v2.5h-35v0h-10.3l-2.8-4.5c-1.3-2.1-4.1-2.8-6.3-1.4c-0.6,0.4-1.1,0.9-1.4,1.4
					l-2.8,4.5H77.6l-2.8-4.5c-1.3-2.1-4.1-2.8-6.3-1.4c-0.6,0.4-1.1,0.9-1.4,1.4l-2.8,4.5h-4.7v0h-35v-2.5h21.6v-19h100.4l-19.1,19
					L154.8,115.6L154.8,115.6z"/>
				<path id="Path_474" class="st1" d="M160.2,64.2v15.3c0,2.2-0.9,4.3-2.4,5.9l-8.7,8.7H46.2V81.6c0-2,1.6-3.6,3.6-3.6h58.9
					c2.6,0,4.7-2.1,4.7-4.7v-10c0-1.4,1.1-2.5,2.5-2.5h40.9C158.7,60.7,160.2,62.3,160.2,64.2z"/>
			</g>
		</g>
	</g>
</g>
</svg>
