<?xml version="1.0" encoding="utf-8"?>
<!-- Generator: Adobe Illustrator 26.5.1, SVG Export Plug-In . SVG Version: 6.00 Build 0)  -->
<svg version="1.1" id="Layer_1" xmlns="http://www.w3.org/2000/svg" xmlns:xlink="http://www.w3.org/1999/xlink" x="0px" y="0px"
	 viewBox="0 0 200 200" style="enable-background:new 0 0 200 200;" xml:space="preserve">
<style type="text/css">
	.st0{fill:none;}
	.st1{fill:#013188;}
</style>
<g id="Group_266" transform="translate(-261 -426)">
	<g id="Group_265">
		<g id="_5._towing" transform="translate(267.561 432.803)">
			<path id="Path_435" class="st0" d="M155.1,28.4v125.5H29.7"/>
			<path id="Path_436" class="st1" d="M136.2,70.2h-12.8c-0.8-0.2-1.4-0.9-1.7-1.7v-9.5c0-1.1-1.1-2.2-2.2-1.7l-7.2,1.7
				c-0.6,0-1.1,1.1-1.1,1.7v44c-0.1,0.9-0.8,1.6-1.7,1.7h-34c-3.1-3.5-7.6-5.4-12.3-5c-3,0.2-5.9,1.1-8.4,2.8l-2.8,1.7
				c-0.6,0-0.6,0.6-1.1,0.6H24.1v8.9c0,0.9,0.8,1.6,1.7,1.7h22.3c0.2,8.6,7.1,15.4,15.6,15.6c8.4,0.2,15.4-6.4,15.6-14.9
				c0-0.2,0-0.5,0-0.8h31.2c0.2,8.6,7.1,15.4,15.6,15.6c8,0,14.7-6,15.6-13.9c0.1-0.9,0.8-1.6,1.7-1.7h6.7c0.9-0.1,1.6-0.8,1.7-1.7
				V91.4c0-0.6,0-0.6-0.6-1.1l-13.9-20.1C137.3,70.8,136.7,70.2,136.2,70.2z M69.3,117.6c-0.1,2.8-2.4,5-5.2,4.9
				c-2.7-0.1-4.8-2.2-4.9-4.9l0,0c0-2.8,2.2-5,5-5c0,0,0,0,0.1,0C67,112,69.3,114.3,69.3,117.6L69.3,117.6z M126.7,122.6
				c-2.8,0-5-2.2-5-5s2.2-5,5-5s5,2.2,5,5C131.7,120.4,129.5,122.6,126.7,122.6C126.7,122.6,126.7,122.6,126.7,122.6L126.7,122.6z
				 M121.7,89.2v-8.9c0.1-0.9,0.8-1.6,1.7-1.7H134c0.6-0.1,1.2,0.1,1.7,0.6l7.2,8.9c1.1,1.1,0,2.8-1.7,2.8h-17.8
				C122.6,90.6,121.9,90,121.7,89.2L121.7,89.2L121.7,89.2z"/>
			<path id="Path_437" class="st1" d="M26.3,104.2h85.9c0.9-0.1,1.6-0.8,1.7-1.7v-3.9c-0.1-0.9-0.8-1.6-1.7-1.7H26.3
				c-0.9,0.1-1.6,0.8-1.7,1.7v3.9c-0.1,0.8,0.5,1.6,1.3,1.7C26.1,104.2,26.2,104.2,26.3,104.2z"/>
		</g>
		<g id="Group_264">
			<path id="Path_502" class="st1" d="M350.9,522c-0.2,1.5-0.3,3.8,1.6,3.8h3.8c1.6,0,3.8-2.1,2.7-3.8
				C357.8,520.1,355.3,522,350.9,522z"/>
			<path id="Path_503" class="st1" d="M325.2,522c0,0,0.6,3.8-1.3,3.8h-2.8c-0.9,0.1-1.7,0.1-2.5-0.2c-0.3-0.2-0.5-0.3-0.8-0.6
				c-0.8-0.8-1.6-1.9-0.9-3C318.3,520.1,320.8,522,325.2,522z"/>
			<path id="Path_504" class="st1" d="M358.5,500.4c0,0-1.4-9.9-6.4-13.6c-5-3.8-25.2-2.5-28.3,0c-3.2,2.5-5,5-6.3,13.2h-4.4v4.9
				l3.1,1.4v10.9c2.5,2.4,5.9,3.7,9.4,3.6h27.7c0,0,6.3-0.6,6.3-5v-9.5l3.1-1.9v-4L358.5,500.4L358.5,500.4z M324.4,513.8
				c-2.5,0-6.3-5.7-1.3-5.7c2.9-0.4,5.7,1.1,6.9,3.8C329.4,513.8,326.9,513.8,324.4,513.8z M338.1,499.9h-16.4c0,0,1.4-7.8,5.3-9.4
				c3.7-0.8,7.4-1.1,11.1-0.9h0.2c3.7-0.1,7.5,0.2,11.1,0.9c3.9,1.7,5.3,9.4,5.3,9.4H338.1z M351.5,513.8c-2.5,0-5,0-5.7-1.9
				c1.2-2.6,4-4.2,6.9-3.8C357.8,508.1,354,513.8,351.5,513.8L351.5,513.8z"/>
		</g>
	</g>
</g>
</svg>
