<?xml version="1.0" encoding="utf-8"?>
<!-- Generator: Adobe Illustrator 26.5.1, SVG Export Plug-In . SVG Version: 6.00 Build 0)  -->
<svg version="1.1" id="Layer_1" xmlns="http://www.w3.org/2000/svg" xmlns:xlink="http://www.w3.org/1999/xlink" x="0px" y="0px"
	 viewBox="0 0 200 200" style="enable-background:new 0 0 200 200;" xml:space="preserve">
<style type="text/css">
	.st0{fill:#013188;}
</style>
<g id="warehouse_" transform="translate(-24.5 -24.5)">
	<g id="warehouse" transform="translate(35.824 37.131)">
		<path id="Path_449" class="st0" d="M73.8,132.2h10v-9.7h-10V132.2z"/>
		<path id="Path_450" class="st0" d="M94.2,105.3h-11v10.8h11V105.3z"/>
		<path id="Path_451" class="st0" d="M93.4,132.2h10.2v-10H93.4V132.2z"/>
		<path id="Path_452" class="st0" d="M138.3,62.3c-0.9-1.2-2.1-2.3-3.5-2.9L91.5,42.1c-1.8-0.8-3.9-0.8-5.7,0L42.3,59.6
			c-1.5,0.6-2.7,1.6-3.5,2.9c-0.8,1.3-1.3,2.8-1.3,4.3v57.9c0,4.3,3.5,7.8,7.8,7.8H67V89.4h43v43.1h21.8c4.3,0,7.8-3.5,7.8-7.8
			c0,0,0,0,0,0l0,0V66.8C139.6,65.2,139.2,63.6,138.3,62.3z"/>
	</g>
</g>
</svg>
